<?xml version="1.0" standalone="no"?>
<!DOCTYPE svg PUBLIC "-//W3C//DTD SVG 20010904//EN"
 "http://www.w3.org/TR/2001/REC-SVG-20010904/DTD/svg10.dtd">
<svg version="1.0" xmlns="http://www.w3.org/2000/svg"
 width="400.000000pt" height="203.000000pt" viewBox="0 0 400.000000 203.000000"
 preserveAspectRatio="xMidYMid meet">

<g transform="translate(0.000000,203.000000) scale(0.100000,-0.100000)"
fill="#000000" stroke="none">
<path d="M3558 1503 c7 -3 16 -2 19 1 4 3 -2 6 -13 5 -11 0 -14 -3 -6 -6z"/>
<path d="M3630 1506 c0 -2 7 -7 16 -10 8 -3 12 -2 9 4 -6 10 -25 14 -25 6z"/>
<path d="M2948 1453 c7 -3 16 -2 19 1 4 3 -2 6 -13 5 -11 0 -14 -3 -6 -6z"/>
<path d="M3745 1422 c35 -37 40 -39 25 -12 -6 11 -20 25 -33 31 -17 10 -16 6
8 -19z"/>
<path d="M3780 1371 c0 -5 7 -12 16 -15 14 -5 15 -4 4 9 -14 17 -20 19 -20 6z"/>
<path d="M185 995 l0 -155 33 0 c31 0 42 12 22 25 -18 11 -12 100 8 118 36 32
56 22 87 -45 36 -77 52 -98 78 -98 18 0 19 2 5 18 -8 9 -25 43 -37 74 -26 64
-33 72 -75 82 l-29 7 54 52 c30 29 63 57 74 64 18 11 17 12 -12 12 -25 1 -33
-3 -33 -17 0 -10 -29 -47 -65 -82 l-65 -64 0 62 c0 35 5 72 10 83 10 17 7 19
-22 19 l-33 0 0 -155z"/>
<path d="M663 1143 c-7 -2 -13 -13 -13 -23 0 -24 -89 -241 -108 -262 -14 -17
-13 -18 12 -18 22 0 26 4 21 19 -3 10 2 37 11 60 l16 41 58 0 57 0 19 -41 c10
-23 17 -50 17 -60 -1 -15 5 -19 33 -19 19 0 34 5 34 10 0 6 -4 10 -9 10 -5 0
-28 46 -51 103 -67 161 -79 187 -82 186 -2 0 -9 -3 -15 -6z m41 -151 c7 -21 5
-22 -43 -22 -28 0 -51 2 -51 5 0 2 12 30 26 62 l26 58 18 -40 c9 -22 20 -50
24 -63z"/>
<path d="M930 1123 c0 -24 1 -25 18 -11 9 8 30 18 45 22 l28 7 -3 -151 -3
-150 34 0 c27 0 32 3 23 12 -8 8 -12 56 -12 151 l0 140 33 -7 c17 -3 38 -14
44 -23 16 -21 24 -14 16 15 -5 21 -10 22 -114 22 l-109 0 0 -27z"/>
<path d="M1296 1133 c11 -23 11 -252 0 -275 -7 -15 -3 -18 28 -18 35 0 36 1
29 28 -5 15 -8 50 -8 77 l0 50 79 3 78 3 -3 -81 -4 -80 33 0 c29 0 32 2 22 19
-5 11 -10 72 -10 136 0 64 5 125 10 136 10 17 7 19 -22 19 l-34 0 4 -70 4 -70
-82 0 -82 0 4 53 c3 28 9 60 13 70 6 14 2 17 -30 17 -32 0 -36 -2 -29 -17z"/>
<path d="M1703 1118 c13 -18 37 -56 52 -85 24 -45 27 -60 23 -122 l-4 -71 34
0 c29 0 32 2 22 19 -22 42 -12 111 26 180 20 36 46 76 57 89 l20 22 -27 0
c-21 0 -27 -4 -22 -15 5 -14 -52 -135 -64 -135 -9 0 -70 118 -70 134 0 12 -10
16 -36 16 l-35 0 24 -32z"/>
<path d="M2265 1005 l0 -145 25 0 c25 0 25 1 22 75 l-4 75 77 0 77 0 -4 -75
c-3 -74 -3 -75 22 -75 l25 0 -3 130 c-3 92 0 135 8 146 11 12 7 14 -21 14
l-34 0 3 -65 4 -65 -77 0 -77 0 4 65 c4 64 4 65 -22 65 l-25 0 0 -145z"/>
<path d="M2665 1005 l0 -145 96 0 c95 0 97 0 101 25 6 30 4 31 -22 5 -15 -15
-33 -20 -75 -20 l-55 0 0 70 0 70 44 0 c27 0 51 -6 60 -16 15 -14 16 -12 16
23 -1 31 -3 35 -11 21 -7 -13 -23 -18 -59 -18 l-50 0 0 60 0 60 44 0 c28 0 52
-7 69 -20 32 -26 35 -25 29 5 -4 24 -6 25 -96 25 l-91 0 0 -145z"/>
<path d="M3008 1138 c17 -17 17 -249 0 -266 -9 -9 -4 -12 23 -12 l34 0 -5 71
c-6 77 -1 86 40 71 15 -6 34 -31 54 -73 24 -50 36 -65 56 -68 24 -3 24 -2 9
15 -9 11 -23 36 -30 58 -8 21 -24 46 -36 56 l-22 17 30 22 c41 31 41 84 -1
106 -36 19 -171 22 -152 3z m120 -14 c15 -10 22 -25 22 -48 0 -41 -15 -56 -60
-56 l-35 0 3 60 c3 54 6 60 26 60 12 0 32 -7 44 -16z"/>
<path d="M3365 1005 l0 -145 98 0 c97 0 97 0 97 25 l0 25 -20 -20 c-15 -15
-33 -20 -75 -20 l-55 0 0 70 0 70 44 0 c27 0 51 -6 60 -16 15 -14 16 -12 16
17 0 26 -3 30 -12 21 -7 -7 -34 -12 -60 -12 l-48 0 0 60 0 60 44 0 c29 0 52
-7 70 -21 l26 -20 0 25 0 26 -92 0 -93 0 0 -145z"/>
<path d="M751 1070 c14 -31 19 -36 19 -24 0 6 -7 19 -16 30 -14 18 -14 18 -3
-6z"/>
<path d="M2014 1009 c-9 -15 15 -39 32 -32 8 3 14 12 12 21 -3 17 -35 25 -44
11z"/>
<path d="M1953 963 c-3 -8 4 -24 16 -36 l22 -22 19 23 c10 13 17 29 14 36 -7
17 -65 16 -71 -1z"/>
<path d="M845 730 c-3 -5 -1 -10 4 -10 6 0 11 5 11 10 0 6 -2 10 -4 10 -3 0
-8 -4 -11 -10z"/>
<path d="M1086 477 c3 -10 9 -15 12 -12 3 3 0 11 -7 18 -10 9 -11 8 -5 -6z"/>
<path d="M1126 395 c-9 -26 -7 -32 5 -12 6 10 9 21 6 23 -2 3 -7 -2 -11 -11z"/>
<path d="M1097 239 c-4 -14 -16 -36 -27 -49 -11 -13 -20 -30 -20 -39 0 -9 14
8 31 37 17 28 29 58 27 64 -3 7 -8 1 -11 -13z"/>
</g>
</svg>
